<svg width="24" height="25" viewBox="0 0 24 25" fill="none" xmlns="http://www.w3.org/2000/svg">
<path d="M12 22.0166C6.477 22.0166 2 17.5396 2 12.0166C2 6.4936 6.477 2.0166 12 2.0166C17.523 2.0166 22 6.4936 22 12.0166C22 17.5396 17.523 22.0166 12 22.0166ZM12 20.0166C14.1217 20.0166 16.1566 19.1737 17.6569 17.6735C19.1571 16.1732 20 14.1383 20 12.0166C20 9.89487 19.1571 7.86004 17.6569 6.35975C16.1566 4.85946 14.1217 4.0166 12 4.0166C9.87827 4.0166 7.84344 4.85946 6.34315 6.35975C4.84285 7.86004 4 9.89487 4 12.0166C4 14.1383 4.84285 16.1732 6.34315 17.6735C7.84344 19.1737 9.87827 20.0166 12 20.0166ZM9 9.0166H15V15.0166H9V9.0166Z" fill="#9A96A4"/>
</svg>
