<svg width="48" height="49" viewBox="0 0 48 49" fill="none" xmlns="http://www.w3.org/2000/svg">
<rect y="0.0166016" width="48" height="48" rx="24" fill="white"/>
<path d="M16.2222 31.778H17.7933L28.1422 21.4291L26.5711 19.858L16.2222 30.2069V31.778ZM34 34.0003H14V29.2858L28.9278 14.358C29.1361 14.1497 29.4187 14.0327 29.7133 14.0327C30.008 14.0327 30.2905 14.1497 30.4989 14.358L33.6422 17.5014C33.8505 17.7097 33.9675 17.9923 33.9675 18.2869C33.9675 18.5815 33.8505 18.8641 33.6422 19.0725L20.9367 31.778H34V34.0003ZM28.1422 18.2869L29.7133 19.858L31.2844 18.2869L29.7133 16.7158L28.1422 18.2869Z" fill="#0047FF"/>
</svg>
