<svg width="24" height="25" viewBox="0 0 24 25" fill="none" xmlns="http://www.w3.org/2000/svg">
<path d="M3 3.88477H21C21.2652 3.88477 21.5196 3.99012 21.7071 4.17766C21.8946 4.3652 22 4.61955 22 4.88477V20.8848C22 21.15 21.8946 21.4043 21.7071 21.5919C21.5196 21.7794 21.2652 21.8848 21 21.8848H3C2.73478 21.8848 2.48043 21.7794 2.29289 21.5919C2.10536 21.4043 2 21.15 2 20.8848V4.88477C2 4.61955 2.10536 4.3652 2.29289 4.17766C2.48043 3.99012 2.73478 3.88477 3 3.88477ZM15 7.88477V9.88477H11V11.8848H15V13.8848L18.5 10.8848L15 7.88477ZM9 17.8848V15.8848H13V13.8848H9V11.8848L5.5 14.8848L9 17.8848Z" fill="#0C50FF"/>
</svg>
