<svg width="24" height="25" viewBox="0 0 24 25" fill="none" xmlns="http://www.w3.org/2000/svg">
<path d="M9.27825 2.70392C8.59326 2.69032 8.03197 2.99888 7.96082 3.46383L7.45661 6.75821L4.12439 6.76199C3.58686 6.76261 3.1545 7.4265 3.15542 8.25072C3.15635 9.07494 3.5898 9.73837 4.12734 9.73777L7.00148 9.73441L6.29239 14.3656L2.96813 14.3698C2.4306 14.3704 1.99908 15.0339 2 15.8581C2.00092 16.6823 2.43395 17.3457 2.97149 17.3451L5.83725 17.3418L5.40356 20.174C5.32224 20.7054 5.91257 21.2332 6.72729 21.3579C7.54201 21.4826 8.26316 21.1554 8.34447 20.6241L8.84701 17.3385L13.5324 17.333L13.0978 20.1741C13.0165 20.7054 13.6068 21.2333 14.4216 21.358C15.2363 21.4827 15.9579 21.1555 16.0392 20.6241L16.5434 17.3297L19.8756 17.326C20.4131 17.3253 20.8455 16.6619 20.8446 15.8377C20.8437 15.0135 20.4102 14.35 19.8727 14.3506L16.9985 14.354L17.7076 9.72237L21.0319 9.71859C21.5694 9.71796 22.0009 9.05408 22 8.22986C21.9991 7.40564 21.566 6.74264 21.0285 6.74324L18.1627 6.7466L18.5964 3.91393C18.6778 3.38259 18.0879 2.85471 17.2731 2.73001C16.4584 2.60532 15.7368 2.93253 15.6555 3.46389L15.153 6.74946L10.4676 6.75491L10.9022 3.91387C10.9835 3.38252 10.3932 2.85464 9.57844 2.72995C9.4766 2.71436 9.37611 2.70586 9.27825 2.70392V2.70392ZM14.697 9.72561L13.9879 14.3572L9.30302 14.3627L10.0121 9.73107L14.697 9.72561V9.72561Z" fill="#005CFF"/>
</svg>
