<svg width="24" height="25" viewBox="0 0 24 25" fill="none" xmlns="http://www.w3.org/2000/svg">
<path d="M21 20.0166C21 20.2818 20.8946 20.5361 20.7071 20.7237C20.5196 20.9112 20.2652 21.0166 20 21.0166H4C3.73478 21.0166 3.48043 20.9112 3.29289 20.7237C3.10536 20.5361 3 20.2818 3 20.0166V9.33056C2.99994 9.17951 3.0341 9.03041 3.09991 8.89445C3.16573 8.7585 3.26149 8.63921 3.38 8.54556L11.38 2.23456C11.5565 2.09505 11.775 2.01917 12 2.01917C12.225 2.01917 12.4435 2.09505 12.62 2.23456L20.62 8.54456C20.7386 8.63832 20.8345 8.75776 20.9003 8.8939C20.9661 9.03005 21.0002 9.17935 21 9.33056V20.0166ZM7 12.0166C7 13.3426 7.52678 14.6144 8.46447 15.5521C9.40215 16.4898 10.6739 17.0166 12 17.0166C13.3261 17.0166 14.5979 16.4898 15.5355 15.5521C16.4732 14.6144 17 13.3426 17 12.0166H15C15 12.8122 14.6839 13.5753 14.1213 14.1379C13.5587 14.7005 12.7956 15.0166 12 15.0166C11.2044 15.0166 10.4413 14.7005 9.87868 14.1379C9.31607 13.5753 9 12.8122 9 12.0166H7Z" fill="#0F0627"/>
</svg>
