<svg width="69" height="25" viewBox="0 0 69 25" fill="none" xmlns="http://www.w3.org/2000/svg"><path d="M13.4563 24.5693L9.74425 19.8653L6.03225 24.5693H0.75225L6.96025 16.7293L0.91225 8.56934H6.09625L9.71225 13.4653L13.3283 8.56934H18.5443L12.4963 16.7293L18.7043 24.5693H13.4563ZM26.5143 24.9213C24.4023 24.9213 22.6209 24.1 21.1703 22.4573C19.7196 20.8147 18.9943 18.852 18.9943 16.5693C18.9943 14.2867 19.7196 12.324 21.1703 10.6813C22.6209 9.03867 24.4023 8.21733 26.5143 8.21733C27.5383 8.21733 28.4556 8.43067 29.2663 8.85734C30.0769 9.284 30.6956 9.78534 31.1223 10.3613V8.56934H35.5063V24.5693H31.1223V22.7773C30.6956 23.3533 30.0769 23.8547 29.2663 24.2813C28.4556 24.708 27.5383 24.9213 26.5143 24.9213ZM24.4983 19.7053C25.2449 20.516 26.2263 20.9213 27.4423 20.9213C28.6583 20.9213 29.6289 20.516 30.3543 19.7053C31.1009 18.8947 31.4743 17.8493 31.4743 16.5693C31.4743 15.2893 31.1009 14.244 30.3543 13.4333C29.6289 12.6227 28.6583 12.2173 27.4423 12.2173C26.2263 12.2173 25.2449 12.6227 24.4983 13.4333C23.7729 14.244 23.4103 15.2893 23.4103 16.5693C23.4103 17.8493 23.7729 18.8947 24.4983 19.7053ZM41.4643 24.5693V12.4093H38.2323V8.56934H41.4643V6.48934C41.4643 4.59067 42.0403 3.09733 43.1923 2.00933C44.3443 0.921335 45.8056 0.377335 47.5763 0.377335C48.6643 0.377335 49.5923 0.494668 50.3603 0.729334V4.60134C49.8483 4.40934 49.2509 4.31334 48.5683 4.31334C47.6083 4.31334 46.9149 4.52667 46.4883 4.95333C46.0616 5.35867 45.8483 6.052 45.8483 7.03333V8.56934H50.3603V12.4093H45.8483V24.5693H41.4643ZM59.8783 24.9213C57.4249 24.9213 55.4089 24.132 53.8303 22.5533C52.2729 20.9747 51.4943 18.9693 51.4943 16.5373C51.4943 14.148 52.2836 12.164 53.8623 10.5853C55.4623 9.00667 57.4783 8.21733 59.9103 8.21733C62.3636 8.21733 64.4009 9.06 66.0223 10.7453C67.6436 12.4093 68.3903 14.692 68.2623 17.5933H55.7823C55.8676 18.596 56.2836 19.4387 57.0303 20.1213C57.7769 20.7827 58.8009 21.1133 60.1023 21.1133C60.8916 21.1133 61.5849 20.964 62.1823 20.6653C62.8009 20.3453 63.2383 19.908 63.4943 19.3533H68.0703C67.6009 20.996 66.6196 22.34 65.1263 23.3853C63.6329 24.4093 61.8836 24.9213 59.8783 24.9213ZM59.7823 11.7693C58.7796 11.7693 57.9369 12.036 57.2543 12.5693C56.5929 13.0813 56.1556 13.796 55.9423 14.7133H63.4623C63.2276 13.7107 62.7583 12.9747 62.0543 12.5053C61.3716 12.0147 60.6143 11.7693 59.7823 11.7693Z" fill="white"/></svg>