<svg width="24" height="25" viewBox="0 0 24 25" fill="none" xmlns="http://www.w3.org/2000/svg">
<path d="M18.031 16.6336L22.314 20.9156L20.899 22.3306L16.617 18.0476C15.0237 19.3248 13.042 20.0195 11 20.0166C6.032 20.0166 2 15.9846 2 11.0166C2 6.0486 6.032 2.0166 11 2.0166C15.968 2.0166 20 6.0486 20 11.0166C20.0029 13.0586 19.3082 15.0403 18.031 16.6336ZM16.025 15.8916C17.2941 14.5865 18.0029 12.837 18 11.0166C18 7.1486 14.867 4.0166 11 4.0166C7.132 4.0166 4 7.1486 4 11.0166C4 14.8836 7.132 18.0166 11 18.0166C12.8204 18.0195 14.5699 17.3107 15.875 16.0416L16.025 15.8916Z" fill="#9A96A4"/>
</svg>
