<svg width="24" height="25" viewBox="0 0 24 25" fill="none" xmlns="http://www.w3.org/2000/svg">
<path d="M3 6.04395H5H21" stroke="#F62E21" stroke-width="2" stroke-linecap="round" stroke-linejoin="round"/>
<path d="M8 6.04395V4.04395C8 3.51351 8.21071 3.0048 8.58579 2.62973C8.96086 2.25466 9.46957 2.04395 10 2.04395H14C14.5304 2.04395 15.0391 2.25466 15.4142 2.62973C15.7893 3.0048 16 3.51351 16 4.04395V6.04395M19 6.04395V20.0439C19 20.5744 18.7893 21.0831 18.4142 21.4582C18.0391 21.8332 17.5304 22.0439 17 22.0439H7C6.46957 22.0439 5.96086 21.8332 5.58579 21.4582C5.21071 21.0831 5 20.5744 5 20.0439V6.04395H19Z" stroke="#F62E21" stroke-width="2" stroke-linecap="round" stroke-linejoin="round"/>
<path d="M10 11.0439V17.0439" stroke="#F62E21" stroke-width="2" stroke-linecap="round" stroke-linejoin="round"/>
<path d="M14 11.0439V17.0439" stroke="#F62E21" stroke-width="2" stroke-linecap="round" stroke-linejoin="round"/>
</svg>
