<svg width="24" height="25" viewBox="0 0 24 25" fill="none" xmlns="http://www.w3.org/2000/svg">
<path d="M9.34203 19.1194L7.41103 18.6014L8.19803 15.6624C7.01999 15.2279 5.92514 14.5947 4.96103 13.7904L2.80803 15.9444L1.39303 14.5294L3.54703 12.3764C2.3311 10.9201 1.51411 9.17315 1.17603 7.30639L3.14403 6.94739C3.90303 11.1494 7.57903 14.3374 12 14.3374C16.42 14.3374 20.097 11.1494 20.856 6.94739L22.824 7.30539C22.4864 9.1724 21.6697 10.9198 20.454 12.3764L22.607 14.5294L21.192 15.9444L19.039 13.7904C18.0749 14.5947 16.9801 15.2279 15.802 15.6624L16.589 18.6024L14.658 19.1194L13.87 16.1794C12.6324 16.3915 11.3677 16.3915 10.13 16.1794L9.34203 19.1194Z" fill="black"/>
</svg>
